# xmcd
#
# Track frame offsets: 
#        150
#        16699
#        37101
#        53128
#        64420
#        84030
#        96867
#        114066
#        133123
#        148193
#        163697
#        181982
#
# Disc length: 2683 seconds
#
# Revision: 5
# Processed by: cddbd v1.5.2PL0 Copyright (c) Steve Scherf et al.
# Submitted via: ExactAudioCopy v1.0b3
#
DISCID=9a0a790c
DTITLE=Jane Birkin - A La Légère
DYEAR=1998
DGENRE=Chanson
TTITLE0=Les clés du paradis
TTITLE1=Les avalanches
TTITLE2=A la légère
TTITLE3=Plus loin de ta rue
TTITLE4=Trouble
TTITLE5=La bulle
TTITLE6=Love slow motion
TTITLE7=Si tout était faux
TTITLE8=L'autre moi
TTITLE9=La pleine Lune
TTITLE10=Simple en français
TTITLE11=C'est comme ça
EXTD=YEAR: 1998 ID3G: 102
EXTT0=
EXTT1=
EXTT2=
EXTT3=
EXTT4=
EXTT5=
EXTT6=
EXTT7=
EXTT8=
EXTT9=
EXTT10=
EXTT11=
PLAYORDER=
